Run_40002
nRows=4
nColumns=164

# SIMM Motion File Header:
name Run_40002
datacolumns 164
datarows 4
otherdata 1
range 2.80000000 2.83000000
endheader
time	pelvis_tilt	pelvis_list	pelvis_rotation	pelvis_tx	pelvis_ty	pelvis_tz	hip_flexion_r	hip_adduction_r	hip_rotation_r	knee_angle_r	ankle_angle_r	hip_flexion_l	hip_adduction_l	hip_rotation_l	knee_angle_l	ankle_angle_l	lumbar_extension	lumbar_bending	lumbar_rotation	arm_flex_r	arm_add_r	arm_rot_r	elbow_flex_r	pro_sup_r	arm_flex_l	arm_add_l	arm_rot_l	elbow_flex_l	pro_sup_l	subtalar_angle_r	mtp_angle_r	subtalar_angle_l	mtp_angle_l	wrist_flex_r	wrist_dev_r	wrist_flex_l	wrist_dev_l	LASI_tx	LASI_ty	LASI_tz	RASI_tx	RASI_ty	RASI_tz	LPSI_tx	LPSI_ty	LPSI_tz	RPSI_tx	RPSI_ty	RPSI_tz	RTH1_tx	RTH1_ty	RTH1_tz	RTH2_tx	RTH2_ty	RTH2_tz	RTH3_tx	RTH3_ty	RTH3_tz	LTH1_tx	LTH1_ty	LTH1_tz	LTH2_tx	LTH2_ty	LTH2_tz	LTH3_tx	LTH3_ty	LTH3_tz	RTB1_tx	RTB1_ty	RTB1_tz	RTB2_tx	RTB2_ty	RTB2_tz	RTB3_tx	RTB3_ty	RTB3_tz	LTB1_tx	LTB1_ty	LTB1_tz	LTB2_tx	LTB2_ty	LTB2_tz	LTB3_tx	LTB3_ty	LTB3_tz	RCAL_tx	RCAL_ty	RCAL_tz	RTOE_tx	RTOE_ty	RTOE_tz	RMT5_tx	RMT5_ty	RMT5_tz	LCAL_tx	LCAL_ty	LCAL_tz	LTOE_tx	LTOE_ty	LTOE_tz	LMT5_tx	LMT5_ty	LMT5_tz	LACR_tx	LACR_ty	LACR_tz	RACR_tx	RACR_ty	RACR_tz	CLAV_tx	CLAV_ty	CLAV_tz	C7_tx	C7_ty	C7_tz	RUA1_tx	RUA1_ty	RUA1_tz	RUA2_tx	RUA2_ty	RUA2_tz	RUA3_tx	RUA3_ty	RUA3_tz	RLEL_tx	RLEL_ty	RLEL_tz	RMEL_tx	RMEL_ty	RMEL_tz	LUA1_tx	LUA1_ty	LUA1_tz	LUA2_tx	LUA2_ty	LUA2_tz	LUA3_tx	LUA3_ty	LUA3_tz	LLEL_tx	LLEL_ty	LLEL_tz	LMEL_tx	LMEL_ty	LMEL_tz	RFAsuperior_tx	RFAsuperior_ty	RFAsuperior_tz	RFAradius_tx	RFAradius_ty	RFAradius_tz	RFAulna_tx	RFAulna_ty	RFAulna_tz	LFAsuperior_tx	LFAsuperior_ty	LFAsuperior_tz	LFAradius_tx	LFAradius_ty	LFAradius_tz	LFAulna_tx	LFAulna_ty	LFAulna_tz
      2.80000000	    -13.25818337	     -6.06016376	      7.02067626	      0.88611847	      0.96474849	     -0.31912223	     62.18642946	      0.07446299	    -11.74741066	    -63.72360652	      8.34832269	    -13.71152906	     -4.57215180	      0.49922016	    -17.41106106	    -29.09818825	      0.92871278	      5.27127218	    -14.53466784	    -59.24742031	    -13.17574011	    -11.93615176	     98.13603656	     83.24982944	      4.82880773	    -29.37210097	      4.04735923	    125.77840317	    113.00708375	      0.00000000	      0.00000000	      0.00000000	      0.00000000	      0.00000000	      0.00000000	      0.00000000	      0.00000000	      0.87719714	      0.96593749	     -0.44183371	      0.91066180	      0.99802641	     -0.20405216	      0.73545707	      1.04441708	     -0.35977445	      0.73912895	      1.05017196	     -0.25886226	      0.95822317	      0.82147446	     -0.13440254	      1.06174806	      0.80538095	     -0.15437203	      1.07879636	      0.70155085	     -0.17465374	      0.74688373	      0.79270784	     -0.47287347	      0.73810284	      0.67906609	     -0.46215513	      0.63043410	      0.61588575	     -0.43795510	      1.14451291	      0.51279348	     -0.24484190	      1.09711969	      0.44024509	     -0.19754384	      1.09004567	      0.33206143	     -0.26397939	      0.54590531	      0.42393666	     -0.37682569	      0.44769989	      0.40956097	     -0.42832058	      0.40438073	      0.29632674	     -0.36212043	      0.97095616	      0.23787300	     -0.27890169	      1.18724222	      0.20195067	     -0.31192250	      1.14820913	      0.16727995	     -0.21152309	      0.27283389	      0.30321050	     -0.34561461	      0.33316740	      0.09737023	     -0.30718378	      0.27012679	      0.10701205	     -0.39739997	      0.92211906	      1.47593837	     -0.46276469	      0.89999490	      1.46762629	     -0.17869649	      0.99049277	      1.39146877	     -0.29714607	      0.86330548	      1.49762114	     -0.32500502	      0.79420015	      1.43449511	     -0.09890148	      0.72407394	      1.42378455	     -0.15798101	      0.68418933	      1.37672343	     -0.08365140	      0.61163901	      1.35454243	     -0.07126230	      0.59990341	      1.34518194	     -0.14731256	      0.90015688	      1.37250334	     -0.56675453	      0.84634483	      1.30561392	     -0.56183030	      0.90820030	      1.27773015	     -0.61353619	      0.90815325	      1.19220113	     -0.65249331	      0.87375488	      1.15400366	     -0.59619246	      0.65913989	      1.24935331	     -0.05071121	      0.73576491	      1.14111799	     -0.09651606	      0.67089080	      1.11852138	     -0.09083452	      0.99787719	      1.23980037	     -0.58874183	      1.10824773	      1.25673491	     -0.44643253	      1.10857549	      1.22027130	     -0.50175497
      2.81000000	    -13.47864048	     -6.30047215	      6.85963728	      0.88786806	      0.96610942	     -0.31860681	     60.33575839	      0.90198745	    -12.20160381	    -54.76458164	      8.40676008	    -13.33002743	     -5.12525006	      0.52311307	    -21.13495413	    -30.58612870	      1.25284334	      5.56130291	    -14.37958281	    -59.53020442	    -12.77069452	    -12.12287824	     98.61284031	     83.34327125	      4.72261995	    -29.25130390	      4.33991067	    126.59558174	    113.21724245	      0.00000000	      0.00000000	      0.00000000	      0.00000000	      0.00000000	      0.00000000	      0.00000000	      0.00000000	      0.87869052	      0.96767819	     -0.44161801	      0.91154599	      0.99855999	     -0.20468183	      0.73775905	      1.04669710	     -0.36117566	      0.74062907	      1.05192689	     -0.26000293	      0.95616898	      0.81813100	     -0.13549045	      1.05863944	      0.79853882	     -0.15451014	      1.07383669	      0.69355528	     -0.17578556	      0.74897307	      0.79476757	     -0.47330386	      0.74121026	      0.68032213	     -0.45975536	      0.63270829	      0.61749257	     -0.43842165	      1.14940524	      0.50461657	     -0.24532247	      1.11022055	      0.42687257	     -0.19918028	      1.11509468	      0.31908610	     -0.26673196	      0.54039426	      0.42916813	     -0.37515097	      0.44653756	      0.41970520	     -0.43139131	      0.39163550	      0.30877786	     -0.36306042	      1.00721073	      0.21172670	     -0.28311605	      1.22625014	      0.20362475	     -0.31765285	      1.19237767	      0.16169236	     -0.21834071	      0.26468511	      0.32425099	     -0.34787856	      0.30357101	      0.11165444	     -0.31330739	      0.24446913	      0.13000888	     -0.40361084	      0.92399684	      1.47768364	     -0.46187537	      0.90164424	      1.46859164	     -0.17836948	      0.99204009	      1.39306286	     -0.29653409	      0.86458760	      1.49877696	     -0.32489936	      0.79552639	      1.43642120	     -0.09908184	      0.72603400	      1.42519475	     -0.15901961	      0.68499228	      1.37901742	     -0.08466536	      0.61238114	      1.35652999	     -0.07272162	      0.60145142	      1.34715518	     -0.14889111	      0.90116986	      1.37454034	     -0.56599270	      0.84745477	      1.30732245	     -0.56077219	      0.90929094	      1.28014359	     -0.61331857	      0.90939912	      1.19417541	     -0.65241401	      0.87465786	      1.15611549	     -0.59621105	      0.66006028	      1.25174888	     -0.05200913	      0.73771174	      1.14390319	     -0.09792793	      0.67322801	      1.12096024	     -0.09285176	      0.99875753	      1.24220019	     -0.58849116	      1.10756482	      1.26174952	     -0.44380972	      1.10872139	      1.22494002	     -0.49889646
      2.82000000	    -13.42376728	     -6.43325786	      6.91440457	      0.88951665	      0.96672649	     -0.31832704	     57.72548890	      1.67480694	    -12.56522120	    -45.65036439	      8.65538035	    -12.72364106	     -5.42702634	      1.78990753	    -26.05512010	    -30.15399553	      1.21471386	      5.73040357	    -14.35785471	    -59.43770589	    -12.55944442	    -12.06620176	     99.00328980	     83.53653068	      4.44173465	    -29.20340093	      4.54465507	    127.14743097	    113.29178971	      0.00000000	      0.00000000	      0.00000000	      0.00000000	      0.00000000	      0.00000000	      0.00000000	      0.00000000	      0.88013352	      0.96933097	     -0.44164598	      0.91254320	      0.99844111	     -0.20532974	      0.73926288	      1.04810161	     -0.36207630	      0.74200465	      1.05258488	     -0.26076602	      0.95365307	      0.81252457	     -0.13583555	      1.05462165	      0.78831228	     -0.15522463	      1.06638230	      0.68198234	     -0.17664150	      0.75331498	      0.79451589	     -0.47310416	      0.74768642	      0.67900716	     -0.45582526	      0.63846123	      0.61611627	     -0.43881746	      1.15132003	      0.49410081	     -0.24648544	      1.11997897	      0.41268516	     -0.20114671	      1.13571826	      0.30652887	     -0.26973821	      0.53737239	      0.43271169	     -0.37366190	      0.44941876	      0.42826998	     -0.43387457	      0.38027127	      0.32207628	     -0.36406369	      1.04002811	      0.18842492	     -0.28736706	      1.25829696	      0.20686723	     -0.32246665	      1.23005825	      0.15912304	     -0.22400350	      0.25557713	      0.34598198	     -0.34902814	      0.27767796	      0.12977149	     -0.31935612	      0.22251106	      0.15499348	     -0.41045200	      0.92590935	      1.47843707	     -0.46178095	      0.90343853	      1.46875970	     -0.17778538	      0.99349951	      1.39375482	     -0.29614772	      0.86613949	      1.49938131	     -0.32447003	      0.79717518	      1.43654508	     -0.09859421	      0.72806807	      1.42473594	     -0.15915759	      0.68669413	      1.37935793	     -0.08473779	      0.61411274	      1.35635303	     -0.07301050	      0.60349977	      1.34694221	     -0.14919415	      0.90138316	      1.37506744	     -0.56546330	      0.84823673	      1.30753633	     -0.56017501	      0.90971903	      1.28101223	     -0.61327075	      0.90930767	      1.19503252	     -0.65259599	      0.87434813	      1.15736409	     -0.59617774	      0.66248617	      1.25202829	     -0.05248566	      0.74109539	      1.14491261	     -0.09904557	      0.67699571	      1.12124815	     -0.09401920	      0.99886502	      1.24266786	     -0.58849978	      1.10638548	      1.26356299	     -0.44240928	      1.10837426	      1.22640387	     -0.49725807
      2.83000000	    -13.10316761	     -6.35175616	      7.13641962	      0.89120638	      0.96655997	     -0.31838118	     54.49070217	      2.28075405	    -12.85345236	    -36.80131140	      9.03869769	    -12.05945904	     -5.30805735	      3.80814150	    -31.73022692	    -28.31867177	      0.84359975	      5.68270612	    -14.40969282	    -59.02098758	    -12.52705347	    -11.79435265	     99.36645143	     83.88616179	      3.94836212	    -29.20865517	      4.64187940	    127.41007326	    113.25022710	      0.00000000	      0.00000000	      0.00000000	      0.00000000	      0.00000000	      0.00000000	      0.00000000	      0.00000000	      0.88179586	      0.97062631	     -0.44202378	      0.91384212	      0.99778367	     -0.20592478	      0.74027676	      1.04853345	     -0.36225515	      0.74325339	      1.05192039	     -0.26108906	      0.95055112	      0.80469324	     -0.13528694	      1.04969892	      0.77475805	     -0.15647588	      1.05637307	      0.66720344	     -0.17729401	      0.75926001	      0.79210088	     -0.47241863	      0.75614342	      0.67591877	     -0.45168908	      0.64679318	      0.61245648	     -0.43911733	      1.15037214	      0.48212711	     -0.24824823	      1.12557968	      0.39856168	     -0.20316523	      1.15094696	      0.29487266	     -0.27280534	      0.53681692	      0.43489547	     -0.37286122	      0.45590862	      0.43520064	     -0.43566465	      0.37114151	      0.33637462	     -0.36520300	      1.06730539	      0.16856615	     -0.29165794	      1.28219719	      0.21072360	     -0.32598889	      1.25919770	      0.15840250	     -0.22818981	      0.24650931	      0.36882668	     -0.35020567	      0.25653761	      0.15115653	     -0.32501466	      0.20554996	      0.18120535	     -0.41737364	      0.92769744	      1.47810228	     -0.46230004	      0.90535175	      1.46808513	     -0.17712242	      0.99473181	      1.39350499	     -0.29596304	      0.86801476	      1.49946480	     -0.32381345	      0.79909976	      1.43499146	     -0.09750855	      0.73009179	      1.42262265	     -0.15838002	      0.68922187	      1.37766789	     -0.08385028	      0.61672537	      1.35395008	     -0.07212874	      0.60595274	      1.34460070	     -0.14825745	      0.90138145	      1.37428344	     -0.56524149	      0.84842475	      1.30683672	     -0.55980590	      0.90926082	      1.28053531	     -0.61335680	      0.90779834	      1.19493058	     -0.65285358	      0.87281348	      1.15785701	     -0.59606825	      0.66643930	      1.25017849	     -0.05219295	      0.74595997	      1.14416360	     -0.09993502	      0.68234529	      1.11952108	     -0.09437462	      0.99801993	      1.24135534	     -0.58860645	      1.10475047	      1.26216586	     -0.44226295	      1.10756198	      1.22466612	     -0.49687845
